<?xml version="1.0" encoding="UTF-8" standalone="no"?>
<!-- Created with Inkscape (http://www.inkscape.org/) -->

<svg
   width="363.29446mm"
   height="414.26392mm"
   viewBox="0 0 363.29446 414.26391"
   version="1.1"
   id="svg5"
   xml:space="preserve"
   sodipodi:docname="logo.svg"
   inkscape:version="1.2.1 (9c6d41e4, 2022-07-14)"
   inkscape:export-filename="../wgaonar/assets/images/log.png"
   inkscape:export-xdpi="96"
   inkscape:export-ydpi="96"
   xmlns:inkscape="http://www.inkscape.org/namespaces/inkscape"
   xmlns:sodipodi="http://sodipodi.sourceforge.net/DTD/sodipodi-0.dtd"
   xmlns:xlink="http://www.w3.org/1999/xlink"
   xmlns="http://www.w3.org/2000/svg"
   xmlns:svg="http://www.w3.org/2000/svg"><sodipodi:namedview
     id="namedview7"
     pagecolor="#ffffff"
     bordercolor="#000000"
     borderopacity="0.25"
     inkscape:showpageshadow="2"
     inkscape:pageopacity="0.0"
     inkscape:pagecheckerboard="0"
     inkscape:deskcolor="#d1d1d1"
     inkscape:document-units="mm"
     showgrid="false"
     inkscape:zoom="0.70710678"
     inkscape:cx="628.61793"
     inkscape:cy="1156.1196"
     inkscape:window-width="1856"
     inkscape:window-height="971"
     inkscape:window-x="64"
     inkscape:window-y="25"
     inkscape:window-maximized="0"
     inkscape:current-layer="layer1"
     showguides="true" /><defs
     id="defs2"><linearGradient
   inkscape:collect="always"
   id="linearGradient3927"><stop
     style="stop-color:#ffffff;stop-opacity:1;"
     offset="0.0259481"
     id="stop3923" /><stop
     style="stop-color:#ffffff;stop-opacity:0;"
     offset="1"
     id="stop3925" /></linearGradient><linearGradient
   inkscape:collect="always"
   id="linearGradient2614"><stop
     style="stop-color:#ffffff;stop-opacity:1;"
     offset="0"
     id="stop2610" /><stop
     style="stop-color:#ffffff;stop-opacity:0;"
     offset="1"
     id="stop2612" /></linearGradient><marker
   style="overflow:visible"
   id="marker1735"
   refX="0"
   refY="0"
   orient="auto"
   inkscape:stockid="Dot"
   markerWidth="3"
   markerHeight="3"
   viewBox="0 0 5.6666667 5.6666667"
   inkscape:isstock="true"
   inkscape:collect="always"
   preserveAspectRatio="xMidYMid"><path
     transform="scale(0.5)"
     style="fill:context-stroke;fill-rule:evenodd;stroke:context-stroke;stroke-width:1pt"
     d="M 5,0 C 5,2.76 2.76,5 0,5 -2.76,5 -5,2.76 -5,0 c 0,-2.76 2.3,-5 5,-5 2.76,0 5,2.24 5,5 z"
     id="path1733"
     sodipodi:nodetypes="sssss" /></marker><marker
   style="overflow:visible"
   id="marker1671"
   refX="0"
   refY="0"
   orient="auto"
   inkscape:stockid="Dot"
   markerWidth="3"
   markerHeight="3"
   viewBox="0 0 5.6666667 5.6666667"
   inkscape:isstock="true"
   inkscape:collect="always"
   preserveAspectRatio="xMidYMid"><path
     transform="scale(0.5)"
     style="fill:context-stroke;fill-rule:evenodd;stroke:context-stroke;stroke-width:1pt"
     d="M 5,0 C 5,2.76 2.76,5 0,5 -2.76,5 -5,2.76 -5,0 c 0,-2.76 2.3,-5 5,-5 2.76,0 5,2.24 5,5 z"
     id="path1669"
     sodipodi:nodetypes="sssss" /></marker><marker
   style="overflow:visible"
   id="Dot"
   refX="0"
   refY="0"
   orient="auto"
   inkscape:stockid="Dot"
   markerWidth="3"
   markerHeight="3"
   viewBox="0 0 5.6666667 5.6666667"
   inkscape:isstock="true"
   inkscape:collect="always"
   preserveAspectRatio="xMidYMid"><path
     transform="scale(0.5)"
     style="fill:context-stroke;fill-rule:evenodd;stroke:context-stroke;stroke-width:1pt"
     d="M 5,0 C 5,2.76 2.76,5 0,5 -2.76,5 -5,2.76 -5,0 c 0,-2.76 2.3,-5 5,-5 2.76,0 5,2.24 5,5 z"
     id="Dot1"
     sodipodi:nodetypes="sssss" /></marker><marker
   style="overflow:visible"
   id="marker9466"
   refX="0"
   refY="0"
   orient="auto"
   inkscape:stockid="Dot"
   markerWidth="6"
   markerHeight="6"
   viewBox="0 0 5.4 5.4"
   inkscape:isstock="true"
   inkscape:collect="always"
   preserveAspectRatio="xMidYMid"
   markerUnits="userSpaceOnUse"><path
     transform="scale(0.45)"
     style="fill:context-fill;fill-rule:evenodd;stroke:context-stroke;stroke-width:2"
     d="M 5,0 C 5,2.76 2.76,5 0,5 -2.76,5 -5,2.76 -5,0 c 0,-2.76 2.3,-5 5,-5 2.76,0 5,2.24 5,5 z"
     id="path9464"
     sodipodi:nodetypes="sssss" /></marker><radialGradient
   inkscape:collect="always"
   xlink:href="#linearGradient2614"
   id="radialGradient2716"
   cx="121.04052"
   cy="146.78793"
   fx="121.04052"
   fy="146.78793"
   r="20.235235"
   gradientTransform="matrix(1,0,0,0.99976748,5.0878907e-6,-9.2174478)"
   gradientUnits="userSpaceOnUse" /><radialGradient
   inkscape:collect="always"
   xlink:href="#linearGradient2614"
   id="radialGradient645"
   gradientUnits="userSpaceOnUse"
   gradientTransform="matrix(1,0,0,0.99976748,8.3285496,-67.701937)"
   cx="121.04052"
   cy="146.78793"
   fx="121.04052"
   fy="146.78793"
   r="20.235235" /><radialGradient
   inkscape:collect="always"
   xlink:href="#linearGradient3927"
   id="radialGradient671"
   gradientUnits="userSpaceOnUse"
   gradientTransform="matrix(1,0,0,0.99976748,8.3285496,-67.701934)"
   cx="121.04051"
   cy="156.04167"
   fx="121.04051"
   fy="156.04167"
   r="20.235235" />
	
	

		
		
		
		
	
			
			
			
			
			
			
			
			
			
			
			
			
			
			
			
			
			
			
			
			
			
			
			
			
		</defs><g
     inkscape:label="Layer 1"
     inkscape:groupmode="layer"
     id="layer1"
     transform="translate(71.2161, 114.826)"><g
       id="g360"
       transform="translate(0,-78.848528)"><path
         style="fill:#23ccfc;fill-opacity:1;stroke:#000000;stroke-width:0.264583"
         d="m -37.828582,-2.30213 0.969767,-0.14237 0.568844,0.0552 1.604164,0.72605 v 0.95315 l -1.604164,0.72604 -0.568844,0.0553 -0.969767,-0.14238 -0.460084,1.71669 0.911051,0.36147 0.464963,0.33222 1.026184,1.43071 -0.476672,0.82545 -1.752398,-0.17316 -0.52026,-0.23647 -0.768644,-0.60808 -1.256978,1.2567 0.608218,0.76847 0.236521,0.52015 0.173192,1.75201 -0.825627,0.47656 -1.431027,-1.02595 -0.332296,-0.46486 -0.361557,-0.91085 -1.717063,0.45998 0.142407,0.96955 -0.0553,0.56872 -0.726206,1.60381 h -0.953362 l -0.726205,-1.60381 -0.0553,-0.56872 0.142407,-0.96955 -1.717063,-0.45998 -0.361558,0.91085 -0.332295,0.46486 -1.431027,1.02595 -0.825627,-0.47656 0.173191,-1.75201 0.236522,-0.52015 0.608218,-0.76847 -1.256978,-1.2567 -0.768645,0.60808 -0.520259,0.23647 -1.752398,0.17316 -0.476672,-0.82545 1.026184,-1.43071 0.464963,-0.33222 0.911051,-0.36147 -0.460085,-1.71669 -0.969766,0.14238 -0.568844,-0.0553 -1.604165,-0.72604 v -0.95315 l 1.604165,-0.72605 0.568844,-0.0552 0.969766,0.14237 0.460085,-1.71668 -0.911051,-0.36148 -0.464963,-0.33222 -1.026184,-1.43071 0.476672,-0.82544 1.752398,0.17315 0.520259,0.23647 0.768645,0.60808 1.256978,-1.2567 -0.608218,-0.76847 -0.236522,-0.52014 -0.173191,-1.75201 0.825627,-0.47657 1.431027,1.02596 0.332295,0.46486 0.361558,0.91085 1.717063,-0.45999 -0.142407,-0.96955 0.0553,-0.56871 0.726205,-1.60381 h 0.953362 l 0.726206,1.60381 0.0553,0.56871 -0.142407,0.96955 1.717063,0.45999 0.361557,-0.91085 0.332296,-0.46486 1.431027,-1.02596 0.825627,0.47657 -0.173192,1.75201 -0.236521,0.52014 -0.608218,0.76847 1.256978,1.2567 0.768644,-0.60808 0.52026,-0.23647 1.752398,-0.17315 0.476672,0.82544 -1.026184,1.43071 -0.464963,0.33222 -0.911051,0.36148 z"
         id="path318" /><ellipse
         style="fill:#ffffff;fill-opacity:1;stroke:#000000;stroke-width:0.264583"
         id="ellipse320"
         cx="-45.426834"
         cy="-1.1866263"
         rx="3.6791365"
         ry="3.6783195" /><path
         style="fill:#23ccfc;fill-opacity:1;stroke:#000000;stroke-width:0.264583"
         d="m -0.38242384,-4.73922 0.41489251,-0.0892 1.14247493,0.0352 1.6403752,0.44459 0.1441395,1.08918 -1.4682776,0.85581 -1.09400894,0.33104 -0.42382885,0.0217 9.1187e-4,1.70688 0.42389268,0.0212 L 1.4925668,0.0068 2.9619386,0.86071 2.8192124,1.95006 1.17943,2.39678 0.03699155,2.43348 -0.37800126,2.34478 -0.81881828,3.99378 -0.41490471,4.1239 0.55693168,4.72549 1.7551585,5.93055 1.3353236,6.94579 -0.36427759,6.95279 -1.4772079,6.69252 -1.8551422,6.49946 l -0.8527004,1.4788 0.3565327,0.23019 0.7829331,0.83251 0.8454783,1.47403 -0.6684567,0.87212 -1.643512,-0.43285 -1.0076547,-0.53932 -0.3150425,-0.28433 -1.206461,1.20777 0.2847411,0.31465 0.5408037,1.00671 0.4350084,1.64263 -0.871339,0.66933 -1.4754814,-0.84335 -0.8337516,-0.78173 -0.2307218,-0.35608 -1.4779617,0.8544 0.1935904,0.37755 0.2616889,1.11242 -0.00456,1.69919 -1.0149953,0.42109 -1.2068443,-1.19642 -0.602966,-0.9708 -0.130689,-0.40372 -1.648786,0.44286 0.08926,0.4148 -0.03521,1.14222 -0.444689,1.64001 -1.08942,0.14411 -0.855995,-1.46795 -0.331113,-1.09377 -0.02171,-0.42374 -1.707252,9.2e-4 -0.02117,0.42379 -0.329694,1.09418 -0.854099,1.46905 -1.089599,-0.1427 -0.446813,-1.63942 -0.03668,-1.14218 0.08873,-0.41489 -1.649363,-0.44073 -0.130154,0.40382 -0.601715,0.97162 -1.205332,1.19796 -1.015472,-0.41974 -0.0072,-1.69922 0.26032,-1.11268 0.193104,-0.37785 -1.479121,-0.85252 -0.230243,0.35647 -0.832693,0.78275 -1.474363,0.84529 -0.872313,-0.66831 0.43295,-1.64315 0.539433,-1.00743 0.284392,-0.31497 -1.208037,-1.20619 -0.314707,0.28467 -1.006934,0.54069 -1.643005,0.43492 -0.669478,-0.87116 0.843531,-1.47514 0.78191,-0.83358 0.356165,-0.23066 -0.8546,-1.47764 -0.377634,0.19356 -1.112666,0.26162 -1.699564,-0.005 -0.421185,-1.01476 1.196687,-1.20658 0.971021,-0.60284 0.403802,-0.13065 -0.442955,-1.64842 -0.414894,0.0893 -1.142474,-0.0352 -1.640373,-0.4446 -0.144141,-1.08917 1.468279,-0.85581 1.094006,-0.33104 0.423832,-0.0217 -0.0011,-1.70688 -0.423895,-0.0212 -1.094422,-0.32962 -1.469371,-0.8539 0.142726,-1.08936 1.639787,-0.44671 1.142437,-0.0367 0.414987,0.0887 0.440823,-1.64899 -0.403913,-0.13013 -0.971837,-0.60158 -1.198229,-1.20506 0.419833,-1.01525 1.699602,-0.007 1.112931,0.26026 0.377932,0.19306 0.852707,-1.47879 -0.356539,-0.23019 -0.78293,-0.83251 -0.845477,-1.47404 0.668454,-0.87212 1.643511,0.43286 1.007656,0.53931 0.315045,0.28433 1.206463,-1.20777 -0.284747,-0.31464 -0.540799,-1.00671 -0.435016,-1.64264 0.871344,-0.66933 1.475479,0.84335 0.833753,0.78173 0.23072,0.35609 1.477966,-0.85441 -0.193595,-0.37755 -0.261688,-1.11242 0.005,-1.69919 1.014988,-0.42109 1.206844,1.19642 0.602974,0.97081 0.130683,0.40371 1.648787,-0.44286 -0.08926,-0.4148 0.03521,-1.14222 0.444689,-1.64001 1.089421,-0.1441 0.855994,1.46795 0.331114,1.09376 0.02171,0.42374 1.707251,-0.001 0.02117,-0.42381 0.329694,-1.09417 0.854098,-1.46905 1.089599,0.1427 0.446814,1.63942 0.03668,1.14218 -0.08872,0.4149 1.649368,0.44072 0.130151,-0.40382 0.601717,-0.97162 1.2053307,-1.19797 1.0154694,0.41974 0.00729,1.69923 -0.2603211,1.11268 -0.1931071,0.37785 1.4791198,0.85252 0.2302476,-0.35646 0.8326939,-0.78276 1.4743597,-0.84529 0.8723147,0.66831 -0.4329475,1.64314 -0.539436,1.00744 -0.2843945,0.31497 1.2080385,1.2062 0.3147052,-0.28469 1.0069343,-0.54068 1.6430104,-0.43492 0.66947802,0.87116 -0.84353602,1.47515 -0.7819118,0.83356 -0.3561588,0.23067 0.854597,1.47764 0.3776335,-0.19355 1.11266581,-0.26163 1.69956469,0.005 0.4211845,1.01477 -1.19668575,1.20657 -0.97102483,0.60284 -0.40379503,0.13066 z"
         id="path322" /><ellipse
         style="fill:#ffffff;fill-opacity:1;stroke:#000000;stroke-width:0.264583"
         id="ellipse324"
         cx="-27.413811"
         cy="-4.8230777"
         transform="matrix(0.99136406,-0.13113845,0.13119572,0.99135649,0,0)"
         rx="2.4126513"
         ry="2.4121339" /><ellipse
         style="fill:#ffffff;fill-opacity:1;stroke:#000000;stroke-width:0.264583"
         id="ellipse326"
         cx="14.205806"
         cy="-15.167177"
         transform="matrix(-0.13119573,-0.99135649,0.99136406,-0.13113845,0,0)"
         rx="2.4121339"
         ry="2.4126513" /><ellipse
         style="fill:#ffffff;fill-opacity:1;stroke:#000000;stroke-width:0.264583"
         id="ellipse328"
         cx="-7.4208651"
         cy="-18.029232"
         transform="matrix(-0.13119573,-0.99135649,0.99136406,-0.13113845,0,0)"
         rx="2.4121339"
         ry="2.4126513" /><ellipse
         style="fill:#ffffff;fill-opacity:1;stroke:#000000;stroke-width:0.264583"
         id="ellipse330"
         cx="3.3925736"
         cy="-16.59819"
         transform="matrix(-0.13119573,-0.99135649,0.99136406,-0.13113845,0,0)"
         rx="4.945333"
         ry="4.946394" /><ellipse
         style="fill:#ffffff;fill-opacity:1;stroke:#000000;stroke-width:0.264583"
         id="ellipse332"
         cx="-5.7824469"
         cy="-1.961635"
         transform="matrix(0.99136406,-0.13113845,0.13119572,0.99135649,0,0)"
         rx="2.4126513"
         ry="2.4121339" /><text
         xml:space="preserve"
         style="font-weight:bold;font-size:54.0013px;font-family:'Courier New';-inkscape-font-specification:'Courier New, Bold';fill:#a96c3e;fill-opacity:1;stroke:#000000;stroke-width:0.264583;stroke-linecap:round"
         x="5.8394971"
         y="12.553333"
         id="text336"><tspan
           id="tspan334"
           style="font-style:normal;font-variant:normal;font-weight:normal;font-stretch:normal;font-size:54.0013px;font-family:'Arial Rounded MT Bold';-inkscape-font-specification:'Arial Rounded MT Bold, Normal';font-variant-ligatures:normal;font-variant-caps:normal;font-variant-numeric:normal;font-variant-east-asian:normal;fill:#a96c3e;fill-opacity:1;stroke:none;stroke-width:0.264583"
           x="5.8394971"
           y="12.553333"
           sodipodi:role="line">wgaonar</tspan></text><g
         id="g356"
         transform="matrix(1.0664359,0,0,1.0683699,-24.167449,-134.04436)"
         style="stroke-width:0.936854"><rect
           style="fill:#feccac;fill-opacity:1;stroke:#a96c3e;stroke-width:1.37249;stroke-linecap:round;stroke-dasharray:none;stroke-opacity:1"
           id="rect338"
           width="18.054821"
           height="18.054821"
           x="250.11473"
           y="116.98909"
           rx="3.6877348"
           ry="3.6810591" /><path
           style="fill:#23ccfc;fill-opacity:1;stroke:#a96c3e;stroke-width:1.37249;stroke-linecap:square;stroke-dasharray:none;stroke-opacity:1;marker-end:url(#marker9466)"
           d="m 265.23465,116.44848 v -10.3448"
           id="path340" /><path
           style="fill:#23ccfc;fill-opacity:1;stroke:#a96c3e;stroke-width:1.37249;stroke-linecap:square;stroke-dasharray:none;stroke-opacity:1;marker-end:url(#marker9466)"
           d="m 268.16955,131.09797 h 10.3448"
           id="path342" /><g
           id="g348"
           transform="translate(87.92355,24.102051)"
           style="stroke-width:0.936854"><path
             style="fill:#23ccfc;fill-opacity:1;stroke:#a96c3e;stroke-width:1.37249;stroke-linecap:butt;stroke-linejoin:round;stroke-dasharray:none;stroke-opacity:1;marker-end:url(#marker9466)"
             d="m 188.01926,98.003708 v 0 -10.586051"
             id="path344"
             sodipodi:nodetypes="ccc" /><path
             style="fill:#23ccfc;fill-opacity:1;stroke:#a96c3e;stroke-width:1.37249;stroke-linecap:butt;stroke-linejoin:round;stroke-dasharray:none;stroke-opacity:1"
             d="M 188.01926,97.271208 H 180.3111"
             id="path346" /></g><g
           id="g354"
           transform="rotate(90,203.99116,158.57979)"
           style="stroke-width:0.936854"><path
             style="fill:#23ccfc;fill-opacity:1;stroke:#a96c3e;stroke-width:1.37249;stroke-linecap:butt;stroke-linejoin:round;stroke-dasharray:none;stroke-opacity:1;marker-end:url(#marker9466)"
             d="m 188.01926,98.003708 v 0 -10.586051"
             id="path350"
             sodipodi:nodetypes="ccc" /><path
             style="fill:#23ccfc;fill-opacity:1;stroke:#a96c3e;stroke-width:1.37249;stroke-linecap:butt;stroke-linejoin:round;stroke-dasharray:none;stroke-opacity:1"
             d="M 188.01926,97.271208 H 180.3111"
             id="path352" /></g></g><rect
         style="fill:none;fill-opacity:1;stroke:#a96c3e;stroke-width:4;stroke-linecap:square;stroke-linejoin:round;stroke-dasharray:none;stroke-opacity:1"
         id="rect358"
         width="359.29446"
         height="67.95488"
         x="-69.216095"
         y="-33.97744"
         rx="3.9327328"
         ry="3.9327326" /></g><g
       id="g7240"
       transform="translate(-12.121839,-92.866272)"><rect
         style="fill:#003380;fill-opacity:1;stroke:none;stroke-width:2.6;stroke-linecap:round;stroke-linejoin:round;stroke-dasharray:none;stroke-opacity:1"
         id="rect6765"
         width="291.2088"
         height="56.475582"
         x="-12.442045"
         y="68.798332"
         rx="3.9327328"
         ry="3.9327326"
         inkscape:export-filename="../wgaonar/assets/images/log.png"
         inkscape:export-xdpi="96"
         inkscape:export-ydpi="96" /><g
         id="g6880"><path
           style="fill:none;fill-opacity:1;stroke:#a96c3e;stroke-width:2.6;stroke-linecap:round;stroke-linejoin:round;stroke-dasharray:none;stroke-opacity:1;marker-end:url(#Dot)"
           d="M 90.855943,103.11486 80.869174,99.326774 88.381327,82.828315"
           id="path3899"
           sodipodi:nodetypes="ccc" /><path
           style="fill:none;fill-opacity:1;stroke:#a96c3e;stroke-width:2.6;stroke-linecap:round;stroke-linejoin:round;stroke-dasharray:none;stroke-opacity:1;marker-end:url(#Dot)"
           d="m 117.409,103.11486 9.98677,-3.788086 -7.51216,-16.498459"
           id="path6193"
           sodipodi:nodetypes="ccc" /><path
           id="path630"
           style="fill:#999999;fill-opacity:1;stroke:none;stroke-width:0.264584"
           d="m 151.90628,77.28128 -0.87023,1.496549 -0.3359,1.114661 -0.0217,0.432015 -1.73892,5.17e-4 -0.0222,-0.431498 -0.33744,-1.114661 -0.8723,-1.494999 -1.1095,0.146761 -0.4532,1.670699 -0.0357,1.163753 0.0909,0.422713 -1.68001,0.450619 -0.13332,-0.410828 -0.61392,-0.989087 -1.2299,-1.219047 -1.03404,0.428915 -0.005,1.73116 0.26613,1.133264 0.19741,0.384473 -1.50586,0.870748 -0.23512,-0.362769 -0.84905,-0.796334 -1.50326,-0.859379 -0.88781,0.682129 0.44339,1.673283 0.55087,1.025777 0.2899,0.320394 -1.22886,1.230933 -0.32091,-0.289905 -1.02681,-0.549837 -1.67432,-0.4408 -0.68109,0.888318 0.86144,1.502234 0.79737,0.84801 0.36328,0.234094 -0.86868,1.506885 -0.38499,-0.196887 -1.13378,-0.2651 -1.73167,0.0078 -0.42737,1.034045 1.2206,1.227832 0.9896,0.612883 0.41186,0.132808 -0.44906,1.680001 -0.42272,-0.09095 -1.16427,0.03772 -1.67018,0.454753 -0.14573,1.11001 1.49759,0.870231 1.11414,0.33538 0.43201,0.02222 0.001,1.738395 -0.4315,0.02222 -1.11466,0.337447 -1.49603,0.871781 0.14727,1.109491 1.67122,0.4532 1.16375,0.0357 0.42272,-0.091 0.45113,1.67948 -0.41134,0.13281 -0.98909,0.61443 -1.21956,1.22938 0.42943,1.03353 1.73167,0.005 1.13327,-0.26665 0.38499,-0.1974 0.87023,1.50533 -0.36277,0.23513 -0.79633,0.84904 -0.85938,1.50327 0.68161,0.88728 1.67432,-0.44286 1.02577,-0.55087 0.32091,-0.28991 1.23042,1.22887 -0.2899,0.32039 -0.54932,1.02681 -0.44132,1.6738 0.88883,0.6811 1.50172,-0.86145 0.84853,-0.79737 0.23461,-0.36277 1.50688,0.86817 -0.19637,0.38499 -0.26561,1.13326 0.007,1.73116 1.03456,0.42788 1.22783,-1.22059 0.6134,-0.99012 0.1323,-0.41135 1.68051,0.44959 -0.0899,0.42271 0.0367,1.16324 0.45527,1.67018 1.11001,0.14573 0.87074,-1.49707 0.33538,-1.11466 0.0217,-0.43202 1.73943,-5.1e-4 0.0222,0.43201 0.33693,1.11415 0.8723,1.49551 1.11001,-0.14676 0.4532,-1.6707 0.0357,-1.16375 -0.091,-0.42271 1.68,-0.45114 0.13281,0.41134 0.61444,0.98909 1.22989,1.21853 1.03353,-0.42891 0.005,-1.73116 -0.26613,-1.13327 -0.19741,-0.38447 1.50585,-0.87023 0.23462,0.36277 0.84956,0.79633 1.50326,0.85886 0.8878,-0.68161 -0.44338,-1.6738 -0.55087,-1.02526 -0.28989,-0.32039 1.22886,-1.23042 0.3209,0.28939 1.02681,0.54932 1.67433,0.4408 0.68108,-0.88832 -0.86143,-1.50171 -0.79737,-0.84801 -0.3638,-0.23462 0.8692,-1.50636 0.38447,0.19637 1.13378,0.2651 1.73168,-0.008 0.42788,-1.03405 -1.2206,-1.22783 -0.99064,-0.61288 -0.41082,-0.1323 0.44906,-1.68 0.42272,0.0899 1.16375,-0.0372 1.6707,-0.45475 0.14572,-1.110522 -1.49759,-0.869715 -1.11516,-0.335897 -0.43151,-0.0217 -9.9e-4,-1.738912 0.43201,-0.02222 1.11414,-0.336931 1.49656,-0.871781 -0.14727,-1.11001 -1.6707,-0.452685 -1.16427,-0.03617 -0.42273,0.09095 -0.45112,-1.678968 0.41082,-0.133325 0.9896,-0.613916 1.21906,-1.229382 -0.42892,-1.033529 -1.73169,-0.0057 -1.13326,0.267167 -0.38498,0.196887 -0.87075,-1.505334 0.36277,-0.235128 0.79685,-0.849044 0.85938,-1.503267 -0.68213,-0.887285 -1.6738,0.442867 -1.02577,0.550871 -0.32092,0.290422 -1.23041,-1.229383 0.28989,-0.320394 0.54933,-1.026294 0.44079,-1.673799 -0.88883,-0.681612 -1.50172,0.861446 -0.84852,0.797367 -0.2341,0.363285 -1.50688,-0.86868 0.19637,-0.38499 0.2651,-1.133264 -0.007,-1.73116 -1.03456,-0.427881 -1.22784,1.220597 -0.61288,0.99012 -0.13281,0.411345 -1.68051,-0.449068 0.0904,-0.422714 -0.0372,-1.163753 -0.45527,-1.670182 z m -2.08618,15.760795 c 0.61725,0 1.19182,0.117275 1.72393,0.3514 0.5534,0.23413 1.03219,0.553154 1.4366,0.957564 0.4044,0.404401 0.72395,0.883721 0.95808,1.437122 0.23413,0.532116 0.35088,1.106671 0.35088,1.723925 0,0.617255 -0.11675,1.202557 -0.35088,1.755966 -0.23413,0.532113 -0.55368,1.000148 -0.95808,1.404568 -0.40441,0.4044 -0.8832,0.72394 -1.4366,0.95808 -0.53211,0.23413 -1.10668,0.3514 -1.72393,0.3514 -0.61726,0 -1.20257,-0.11727 -1.75597,-0.3514 -0.53211,-0.23414 -1.00015,-0.55368 -1.40456,-0.95808 -0.40441,-0.40442 -0.72394,-0.872455 -0.95808,-1.404568 -0.23413,-0.553409 -0.3514,-1.138711 -0.3514,-1.755966 0,-0.617254 0.11727,-1.191809 0.3514,-1.723925 0.23414,-0.553401 0.55367,-1.032721 0.95808,-1.437122 0.40441,-0.40441 0.87245,-0.723434 1.40456,-0.957564 0.5534,-0.234125 1.13871,-0.3514 1.75597,-0.3514 z" /><path
           style="font-weight:normal;font-size:54.0013px;font-family:Phosphate;-inkscape-font-specification:'Phosphate, Normal';fill:#ffffff;fill-opacity:1;stroke:none;stroke-width:0.264583;stroke-linecap:round"
           d="M -6.310639,79.502464 H 5.893655 l 4.1581,12.582303 4.1581,-12.582303 h 7.88419 l 4.1581,12.582303 4.158101,-12.582303 H 42.61454 L 30.734253,115.52133 H 21.770037 L 18.15195,104.61307 14.533863,115.52133 H 5.569647 Z"
           id="path925" /><path
           style="font-weight:normal;font-size:54.0013px;font-family:Phosphate;-inkscape-font-specification:'Phosphate, Normal';fill:#ffffff;fill-opacity:1;stroke:none;stroke-width:0.264583;stroke-linecap:round"
           d="m 66.375069,91.760759 q -0.972024,-0.86402 -2.430059,-1.296031 -1.458035,-0.486011 -2.862069,-0.486011 -1.566037,0 -2.862069,0.594014 -1.296031,0.540013 -2.268054,1.566038 -0.918022,0.972023 -1.458035,2.376057 -0.540013,1.404034 -0.540013,3.024073 0,1.620039 0.594014,3.024071 0.594014,1.40404 1.620039,2.43006 1.026025,0.97202 2.376057,1.56604 1.404034,0.54001 2.970072,0.54001 1.836044,0 3.34808,-0.75602 1.512037,-0.81002 2.592063,-2.16005 h -3.240078 v -7.560182 h 13.878334 v 11.988292 q -1.24203,2.21405 -2.970071,4.05009 -1.728042,1.78205 -3.888094,3.07808 -2.106051,1.29603 -4.590111,1.99805 -2.48406,0.70201 -5.130123,0.70201 -3.888094,0 -7.344177,-1.45803 -3.456083,-1.45804 -6.048146,-3.9961 -2.538061,-2.53806 -4.050097,-5.99414 -1.458036,-3.45609 -1.458036,-7.452181 0,-3.888094 1.404034,-7.344177 1.404034,-3.456084 3.834093,-5.994145 2.484059,-2.592062 5.83214,-4.050097 3.402082,-1.512037 7.290176,-1.512037 3.024073,0 5.238126,0.594015 2.214053,0.594014 3.72609,1.350032 1.782043,0.864021 2.970071,1.890046 z"
           id="path927" /><path
           id="path929"
           style="font-weight:normal;font-size:54.0013px;font-family:Phosphate;-inkscape-font-specification:'Phosphate, Normal';fill:#ffffff;fill-opacity:1;stroke:none;stroke-width:0.264583;stroke-linecap:round"
           d="m 99.812373,79.502464 h 8.640197 l 13.66233,36.018866 h -11.34027 l -1.18803,-3.24008 H 98.678343 l -1.18803,3.24008 H 86.150039 Z m 6.750157,24.840596 -2.43006,-6.31815 -2.43006,6.31815 z" /><path
           style="font-weight:normal;font-size:54.0013px;font-family:Phosphate;-inkscape-font-specification:'Phosphate, Normal';fill:#ffffff;stroke:none;stroke-width:0.264583;stroke-linecap:round"
           d="m 171.87461,79.502464 h 9.45023 l 9.93624,13.878334 V 79.502464 h 11.28627 v 36.018866 h -9.50423 L 183.16088,101.697 v 13.82433 h -11.28627 z"
           id="path933" /><path
           id="path935"
           style="font-weight:normal;font-size:54.0013px;font-family:Phosphate;-inkscape-font-specification:'Phosphate, Normal';fill:#ffffff;stroke:none;stroke-width:0.264583;stroke-linecap:round"
           d="m 219.1201,79.502464 h 8.6402 l 13.66233,36.018866 h -11.34027 l -1.18803,-3.24008 h -10.90826 l -1.18803,3.24008 h -11.34027 z m 6.75016,24.840596 -2.43006,-6.31815 -2.43006,6.31815 z" /><path
           id="path1275"
           style="font-weight:normal;font-size:54.0013px;font-family:Phosphate;-inkscape-font-specification:'Phosphate, Normal';fill:#ffffff;stroke:none;stroke-width:0.264583;stroke-linecap:round"
           d="m 242.23262,79.502464 h 12.42031 q 3.45607,0 6.37214,0.918022 2.97008,0.918022 5.13012,2.700065 2.16006,1.782043 3.34808,4.428107 1.24203,2.592062 1.24203,5.994144 0,2.700065 -0.75601,4.590111 -0.75602,1.890047 -1.67404,3.132077 -1.08003,1.40403 -2.43006,2.37606 l 6.75016,11.88028 h -13.50033 l -5.40013,-9.12622 v 9.12622 h -11.50227 z m 11.50227,17.712427 h 0.59402 q 2.05205,0 3.45608,-0.918022 1.45804,-0.918022 1.45804,-3.078074 0,-2.160052 -1.45804,-3.078075 -1.40403,-0.918022 -3.45608,-0.918022 h -0.59402 z" /><path
           style="color:#000000;fill:#ffffff;stroke-width:1.465;stroke-linejoin:round"
           d="m 246.54406,94.275352 v 0 -11.309819"
           id="path2432" /></g></g><g
       id="g10826"
       inkscape:export-filename="../wgaonar/assets/images/log.png"
       inkscape:export-xdpi="96"
       inkscape:export-ydpi="96"
       transform="translate(0,-69.596985)"><rect
         style="fill:#003380;fill-opacity:1;stroke:none;stroke-width:2.6;stroke-linecap:round;stroke-linejoin:round;stroke-dasharray:none;stroke-opacity:1"
         id="rect361"
         width="291.2088"
         height="73.06514"
         x="-24.563885"
         y="124.20023"
         rx="3.9327328"
         ry="3.9327328"
         inkscape:export-filename="../wgaonar/assets/images/log.png"
         inkscape:export-xdpi="96"
         inkscape:export-ydpi="96" /><g
         id="g644"
         transform="translate(8.3285446,11.1125)"><path
           id="path368"
           style="fill:url(#radialGradient2716);fill-opacity:1;stroke:none;stroke-width:0.264584"
           d="m 123.12735,126.55741 -0.87023,1.49655 -0.3359,1.11466 -0.0217,0.43202 -1.73892,5.1e-4 -0.0222,-0.43149 -0.33744,-1.11466 -0.8723,-1.495 -1.1095,0.14676 -0.4532,1.6707 -0.0357,1.16375 0.0909,0.42271 -1.68001,0.45062 -0.13332,-0.41083 -0.61392,-0.98908 -1.2299,-1.21905 -1.03404,0.42891 -0.005,1.73116 0.26613,1.13327 0.19741,0.38447 -1.50586,0.87075 -0.23512,-0.36277 -0.84905,-0.79633 -1.50326,-0.85938 -0.88781,0.68213 0.44339,1.67328 0.55087,1.02578 0.2899,0.32039 -1.22886,1.23093 -0.32091,-0.2899 -1.02681,-0.54984 -1.67432,-0.4408 -0.68109,0.88832 0.86144,1.50223 0.79737,0.84801 0.36328,0.2341 -0.86868,1.50688 -0.38499,-0.19688 -1.13378,-0.2651 -1.73167,0.008 -0.42737,1.03404 1.2206,1.22783 0.9896,0.61289 0.41186,0.1328 -0.44906,1.68001 -0.42272,-0.091 -1.16427,0.0377 -1.67018,0.45476 -0.14573,1.11001 1.49759,0.87023 1.11414,0.33538 0.43201,0.0222 0.001,1.73839 -0.4315,0.0222 -1.11466,0.33745 -1.49603,0.87178 0.14727,1.10949 1.67122,0.4532 1.16375,0.0357 0.42272,-0.091 0.45113,1.67948 -0.41134,0.13281 -0.98909,0.61443 -1.21956,1.22938 0.42943,1.03353 1.73167,0.005 1.13327,-0.26665 0.38499,-0.1974 0.87023,1.50533 -0.36277,0.23513 -0.79633,0.84904 -0.85938,1.50327 0.68161,0.88728 1.67432,-0.44286 1.02577,-0.55087 0.32091,-0.28991 1.23042,1.22887 -0.2899,0.32039 -0.54932,1.02681 -0.44132,1.6738 0.88883,0.6811 1.50172,-0.86145 0.84853,-0.79737 0.23461,-0.36277 1.50688,0.86817 -0.19637,0.38499 -0.26561,1.13326 0.007,1.73116 1.03456,0.42788 1.22783,-1.22059 0.6134,-0.99012 0.1323,-0.41135 1.68051,0.44959 -0.0899,0.42271 0.0367,1.16324 0.45527,1.67018 1.11001,0.14573 0.87074,-1.49707 0.33538,-1.11466 0.0217,-0.43202 1.73943,-5.1e-4 0.0222,0.43201 0.33693,1.11415 0.8723,1.49551 1.11001,-0.14676 0.4532,-1.6707 0.0357,-1.16375 -0.091,-0.42271 1.68,-0.45114 0.13281,0.41134 0.61444,0.98909 1.22989,1.21853 1.03353,-0.42891 0.005,-1.73116 -0.26613,-1.13327 -0.19741,-0.38447 1.50585,-0.87023 0.23462,0.36277 0.84956,0.79633 1.50326,0.85886 0.8878,-0.68161 -0.44338,-1.6738 -0.55087,-1.02526 -0.28989,-0.32039 1.22886,-1.23042 0.3209,0.28939 1.02681,0.54932 1.67433,0.4408 0.68108,-0.88832 -0.86143,-1.50171 -0.79737,-0.84801 -0.3638,-0.23462 0.8692,-1.50636 0.38447,0.19637 1.13378,0.2651 1.73168,-0.008 0.42788,-1.03405 -1.2206,-1.22783 -0.99064,-0.61288 -0.41082,-0.1323 0.44906,-1.68 0.42272,0.0899 1.16375,-0.0372 1.6707,-0.45475 0.14572,-1.11052 -1.49759,-0.86971 -1.11516,-0.3359 -0.43151,-0.0217 -9.9e-4,-1.73891 0.43201,-0.0222 1.11414,-0.33693 1.49656,-0.87179 -0.14727,-1.11001 -1.6707,-0.45268 -1.16427,-0.0362 -0.42273,0.091 -0.45112,-1.67897 0.41082,-0.13332 0.9896,-0.61392 1.21906,-1.22938 -0.42892,-1.03353 -1.73169,-0.006 -1.13326,0.26717 -0.38498,0.19688 -0.87075,-1.50533 0.36277,-0.23513 0.79685,-0.84904 0.85938,-1.50327 -0.68213,-0.88728 -1.6738,0.44286 -1.02577,0.55087 -0.32092,0.29043 -1.23041,-1.22939 0.28989,-0.32039 0.54933,-1.0263 0.44079,-1.67379 -0.88883,-0.68162 -1.50172,0.86145 -0.84852,0.79737 -0.2341,0.36328 -1.50688,-0.86868 0.19637,-0.38499 0.2651,-1.13326 -0.007,-1.73116 -1.03456,-0.42788 -1.22784,1.22059 -0.61288,0.99012 -0.13281,0.41135 -1.68051,-0.44907 0.0904,-0.42271 -0.0372,-1.16376 -0.45527,-1.67018 z m -2.08618,15.7608 c 0.61725,0 1.19182,0.11727 1.72393,0.3514 0.5534,0.23413 1.03219,0.55315 1.4366,0.95756 0.4044,0.4044 0.72395,0.88372 0.95808,1.43712 0.23413,0.53212 0.35088,1.10668 0.35088,1.72393 0,0.61725 -0.11675,1.20256 -0.35088,1.75596 -0.23413,0.53212 -0.55368,1.00015 -0.95808,1.40457 -0.40441,0.4044 -0.8832,0.72394 -1.4366,0.95808 -0.53211,0.23413 -1.10668,0.3514 -1.72393,0.3514 -0.61726,0 -1.20257,-0.11727 -1.75597,-0.3514 -0.53211,-0.23414 -1.00015,-0.55368 -1.40456,-0.95808 -0.40441,-0.40442 -0.72394,-0.87245 -0.95808,-1.40457 -0.23413,-0.5534 -0.3514,-1.13871 -0.3514,-1.75596 0,-0.61726 0.11727,-1.19181 0.3514,-1.72393 0.23414,-0.5534 0.55367,-1.03272 0.95808,-1.43712 0.40441,-0.40441 0.87245,-0.72343 1.40456,-0.95756 0.5534,-0.23413 1.13871,-0.3514 1.75597,-0.3514 z" /><path
           style="font-weight:normal;font-size:54.0013px;font-family:Phosphate;-inkscape-font-specification:'Phosphate, Normal';fill:#ffffff;fill-opacity:1;stroke:none;stroke-width:0.264583;stroke-linecap:round"
           d="m -18.432478,128.7786 h 12.204294 l 4.1581,12.5823 4.1581,-12.5823 h 7.88419 l 4.1581,12.5823 4.158101,-12.5823 H 30.492701 L 18.612414,164.79746 H 9.648198 L 6.030111,153.8892 2.412024,164.79746 h -8.964216 z"
           id="path370" /><path
           style="font-weight:normal;font-size:54.0013px;font-family:Phosphate;-inkscape-font-specification:'Phosphate, Normal';fill:#ffffff;fill-opacity:1;stroke:none;stroke-width:0.264583;stroke-linecap:round"
           d="m 54.25323,141.03689 q -0.972024,-0.86402 -2.430059,-1.29603 -1.458035,-0.48601 -2.862069,-0.48601 -1.566037,0 -2.862069,0.59401 -1.296031,0.54002 -2.268054,1.56604 -0.918022,0.97202 -1.458035,2.37606 -0.540013,1.40403 -0.540013,3.02407 0,1.62004 0.594014,3.02407 0.594014,1.40404 1.620039,2.43006 1.026025,0.97202 2.376057,1.56604 1.404034,0.54001 2.970072,0.54001 1.836044,0 3.34808,-0.75602 1.512037,-0.81002 2.592063,-2.16005 h -3.240078 v -7.56018 h 13.878334 v 11.98829 q -1.24203,2.21405 -2.970071,4.05009 -1.728042,1.78205 -3.888094,3.07808 -2.106051,1.29603 -4.590111,1.99805 -2.48406,0.70201 -5.130123,0.70201 -3.888094,0 -7.344177,-1.45803 -3.456083,-1.45804 -6.048146,-3.9961 -2.538061,-2.53806 -4.050097,-5.99414 -1.458036,-3.45609 -1.458036,-7.45218 0,-3.88809 1.404034,-7.34417 1.404034,-3.45609 3.834093,-5.99415 2.484059,-2.59206 5.83214,-4.0501 3.402082,-1.51203 7.290176,-1.51203 3.024073,0 5.238126,0.59401 2.214053,0.59401 3.72609,1.35003 1.782043,0.86402 2.970071,1.89005 z"
           id="path372" /><path
           id="path374"
           style="font-weight:normal;font-size:54.0013px;font-family:Phosphate;-inkscape-font-specification:'Phosphate, Normal';fill:#ffffff;fill-opacity:1;stroke:none;stroke-width:0.264583;stroke-linecap:round"
           d="m 79.99004,128.7786 h 8.640197 l 13.662333,36.01886 H 90.952297 l -1.18803,-3.24008 H 78.85601 l -1.18803,3.24008 H 66.327706 Z m 6.750157,24.84059 -2.43006,-6.31815 -2.43006,6.31815 z" /><path
           style="font-weight:normal;font-size:54.0013px;font-family:Phosphate;-inkscape-font-specification:'Phosphate, Normal';fill:#ffffff;stroke:none;stroke-width:0.264583;stroke-linecap:round"
           d="m 143.09568,128.7786 h 9.45023 l 9.93624,13.87833 V 128.7786 h 11.28627 v 36.01886 h -9.50423 l -9.88224,-13.82433 v 13.82433 h -11.28627 z"
           id="path376" /><path
           id="path378"
           style="font-weight:normal;font-size:54.0013px;font-family:Phosphate;-inkscape-font-specification:'Phosphate, Normal';fill:#ffffff;stroke:none;stroke-width:0.264583;stroke-linecap:round"
           d="m 190.34117,128.7786 h 8.6402 l 13.66233,36.01886 h -11.34027 l -1.18803,-3.24008 h -10.90826 l -1.18803,3.24008 h -11.34027 z m 6.75016,24.84059 -2.43006,-6.31815 -2.43006,6.31815 z" /><path
           id="path380"
           style="font-weight:normal;font-size:54.0013px;font-family:Phosphate;-inkscape-font-specification:'Phosphate, Normal';fill:#ffffff;stroke:none;stroke-width:0.264583;stroke-linecap:round"
           d="M 213.45369,128.7786 H 225.874 q 3.45607,0 6.37214,0.91802 2.97008,0.91802 5.13012,2.70006 2.16006,1.78205 3.34808,4.42811 1.24203,2.59206 1.24203,5.99414 0,2.70007 -0.75601,4.59012 -0.75602,1.89004 -1.67404,3.13207 -1.08003,1.40403 -2.43006,2.37606 l 6.75016,11.88028 h -13.50033 l -5.40013,-9.12622 v 9.12622 h -11.50227 z m 11.50227,17.71242 h 0.59402 q 2.05205,0 3.45608,-0.91802 1.45804,-0.91802 1.45804,-3.07807 0,-2.16005 -1.45804,-3.07808 -1.40403,-0.91802 -3.45608,-0.91802 h -0.59402 z" /><path
           style="color:#000000;fill:#ffffff;stroke-width:1.465;stroke-linejoin:round"
           d="m 217.76513,143.55149 v 0 -11.30982"
           id="path382" /></g><path
         style="fill:none;stroke:#ffffff;stroke-width:2.8;stroke-linecap:round;stroke-linejoin:bevel;stroke-dasharray:none;marker-start:url(#marker1671);marker-end:url(#marker1735)"
         d="m -18.231351,157.90053 v 24.1851 h 84.1899 l 8.341508,8.41235"
         id="path1350"
         sodipodi:nodetypes="cccc" /><path
         style="fill:none;stroke:#ffffff;stroke-width:2.80001;stroke-linecap:round;stroke-linejoin:bevel;stroke-dasharray:none;marker-start:url(#Dot);marker-end:url(#Dot)"
         d="m 170.87765,133.21613 h 87.09909 v 55.03334 h -42.67463"
         id="path2251"
         sodipodi:nodetypes="cccc" /></g><rect
       style="fill:#003380;fill-opacity:1;stroke:none;stroke-width:2.6;stroke-linecap:round;stroke-linejoin:round;stroke-dasharray:none;stroke-opacity:1"
       id="rect470"
       width="291.2088"
       height="73.06514"
       x="-24.563885"
       y="54.603249"
       rx="3.9327328"
       ry="3.9327328"
       inkscape:export-filename="../wgaonar/assets/images/log.png"
       inkscape:export-xdpi="96"
       inkscape:export-ydpi="96" /><path
       style="font-weight:normal;font-size:54.0013px;font-family:Phosphate;-inkscape-font-specification:'Phosphate, Normal';fill:#ffffff;fill-opacity:1;stroke:none;stroke-width:0.264583;stroke-linecap:round"
       d="M -10.103933,70.294115 H 2.1003606 l 4.1581,12.5823 4.1581004,-12.5823 h 7.88419 l 4.1581,12.5823 4.158101,-12.5823 H 38.821246 L 26.940959,106.31298 H 17.976743 L 14.358656,95.404715 10.740569,106.31298 H 1.7763526 Z"
       id="path474" /><path
       style="font-weight:normal;font-size:54.0013px;font-family:Phosphate;-inkscape-font-specification:'Phosphate, Normal';fill:#ffffff;fill-opacity:1;stroke:none;stroke-width:0.264583;stroke-linecap:round"
       d="m 62.581775,82.552405 q -0.972024,-0.86402 -2.430059,-1.29603 -1.458035,-0.48601 -2.862069,-0.48601 -1.566037,0 -2.862069,0.59401 -1.296031,0.54002 -2.268054,1.56604 -0.918022,0.97202 -1.458035,2.37606 -0.540013,1.40403 -0.540013,3.02407 0,1.62004 0.594014,3.02407 0.594014,1.40404 1.620039,2.43006 1.026025,0.97202 2.376057,1.56604 1.404034,0.54001 2.970072,0.54001 1.836044,0 3.34808,-0.75602 1.512037,-0.81002 2.592063,-2.16005 h -3.240078 v -7.56018 h 13.878334 v 11.98829 q -1.24203,2.21405 -2.970071,4.050095 -1.728042,1.78205 -3.888094,3.07808 -2.106051,1.29603 -4.590111,1.99805 -2.48406,0.70201 -5.130123,0.70201 -3.888094,0 -7.344177,-1.45803 -3.456083,-1.45804 -6.048146,-3.9961 -2.538061,-2.538065 -4.050097,-5.994145 -1.458036,-3.45609 -1.458036,-7.45218 0,-3.88809 1.404034,-7.34417 1.404034,-3.45609 3.834093,-5.99415 2.484059,-2.59206 5.83214,-4.0501 3.402082,-1.51203 7.290176,-1.51203 3.024073,0 5.238126,0.59401 2.214053,0.59401 3.72609,1.35003 1.782043,0.86402 2.970071,1.89005 z"
       id="path476" /><path
       id="path478"
       style="font-weight:normal;font-size:54.0013px;font-family:Phosphate;-inkscape-font-specification:'Phosphate, Normal';fill:#ffffff;fill-opacity:1;stroke:none;stroke-width:0.264583;stroke-linecap:round"
       d="m 88.318585,70.294115 h 8.640197 L 110.62111,106.31298 H 99.280842 l -1.18803,-3.24008 H 87.184555 l -1.18803,3.24008 H 74.656251 Z m 6.750157,24.84059 -2.43006,-6.31815 -2.43006,6.31815 z" /><path
       style="font-weight:normal;font-size:54.0013px;font-family:Phosphate;-inkscape-font-specification:'Phosphate, Normal';fill:#ffffff;stroke:none;stroke-width:0.264583;stroke-linecap:round"
       d="m 151.42422,70.294115 h 9.45023 l 9.93624,13.87833 v -13.87833 h 11.28627 v 36.018865 h -9.50423 l -9.88224,-13.824335 v 13.824335 h -11.28627 z"
       id="path481" /><path
       id="path483"
       style="font-weight:normal;font-size:54.0013px;font-family:Phosphate;-inkscape-font-specification:'Phosphate, Normal';fill:#ffffff;stroke:none;stroke-width:0.264583;stroke-linecap:round"
       d="m 198.66971,70.294115 h 8.6402 l 13.66233,36.018865 h -11.34027 l -1.18803,-3.24008 h -10.90826 l -1.18803,3.24008 h -11.34027 z m 6.75016,24.84059 -2.43006,-6.31815 -2.43006,6.31815 z" /><path
       id="path485"
       style="font-weight:normal;font-size:54.0013px;font-family:Phosphate;-inkscape-font-specification:'Phosphate, Normal';fill:#ffffff;stroke:none;stroke-width:0.264583;stroke-linecap:round"
       d="m 221.78223,70.294115 h 12.42031 q 3.45607,0 6.37214,0.91802 2.97008,0.91802 5.13012,2.70006 2.16006,1.78205 3.34808,4.42811 1.24203,2.59206 1.24203,5.99414 0,2.70007 -0.75601,4.59012 -0.75602,1.89004 -1.67404,3.13207 -1.08003,1.40403 -2.43006,2.37606 l 6.75016,11.880285 h -13.50033 l -5.40013,-9.126225 v 9.126225 h -11.50227 z m 11.50227,17.71242 h 0.59402 q 2.05205,0 3.45608,-0.91802 1.45804,-0.91802 1.45804,-3.07807 0,-2.16005 -1.45804,-3.07808 -1.40403,-0.91802 -3.45608,-0.91802 h -0.59402 z" /><path
       style="color:#000000;fill:#ffffff;stroke-width:1.465;stroke-linejoin:round"
       d="m 226.09367,85.067005 v 0 -11.30982"
       id="path487" /><path
       style="fill:none;stroke:#ffffff;stroke-width:2.8;stroke-linecap:round;stroke-linejoin:bevel;stroke-dasharray:none;marker-start:url(#marker1671);marker-end:url(#marker1735)"
       d="m -18.231351,88.303545 v 24.185105 h 84.1899 l 8.341508,8.41235"
       id="path491"
       sodipodi:nodetypes="cccc" /><path
       style="fill:none;stroke:#ffffff;stroke-width:2.80001;stroke-linecap:round;stroke-linejoin:bevel;stroke-dasharray:none;marker-start:url(#Dot);marker-end:url(#Dot)"
       d="m 170.87765,63.619145 h 87.09909 v 55.033345 h -42.67463"
       id="path493"
       sodipodi:nodetypes="cccc" /><path
       id="path472"
       style="fill:url(#radialGradient671);fill-opacity:1;stroke:none;stroke-width:0.264584"
       d="m 131.45589,68.072925 -0.87023,1.49655 -0.3359,1.11466 -0.0217,0.43202 -1.73892,5.1e-4 -0.0222,-0.43149 -0.33744,-1.11466 -0.8723,-1.495 -1.1095,0.14676 -0.4532,1.6707 -0.0357,1.16375 0.0909,0.42271 -1.68001,0.45062 -0.13332,-0.41083 -0.61392,-0.98908 -1.2299,-1.21905 -1.03404,0.42891 -0.005,1.73116 0.26613,1.13327 0.19741,0.38447 -1.50586,0.87075 -0.23512,-0.36277 -0.84905,-0.79633 -1.50326,-0.85938 -0.88781,0.68213 0.44339,1.67328 0.55087,1.02578 0.2899,0.32039 -1.22886,1.23093 -0.32091,-0.2899 -1.02681,-0.54984 -1.67432,-0.4408 -0.68109,0.88832 0.86144,1.50223 0.79737,0.84801 0.36328,0.2341 -0.86868,1.50688 -0.38499,-0.19688 -1.13378,-0.2651 -1.73167,0.008 -0.42737,1.03404 1.2206,1.22783 0.9896,0.61289 0.41186,0.1328 -0.44906,1.68001 -0.42272,-0.091 -1.16427,0.0377 -1.67018,0.45476 -0.14573,1.11001 1.49759,0.87023 1.11414,0.33538 0.43201,0.0222 0.001,1.73839 -0.4315,0.0222 -1.11466,0.33745 -1.49603,0.87178 0.14727,1.10949 1.67122,0.4532 1.16375,0.0357 0.42272,-0.091 0.45113,1.67948 -0.41134,0.13281 -0.98909,0.61443 -1.21956,1.22938 0.42943,1.03353 1.73167,0.005 1.13327,-0.26665 0.38499,-0.1974 0.87023,1.50533 -0.36277,0.23513 -0.79633,0.84904 -0.85938,1.503275 0.68161,0.88728 1.67432,-0.44286 1.02577,-0.55087 0.32091,-0.289915 1.23042,1.228875 -0.2899,0.32039 -0.54932,1.02681 -0.44132,1.6738 0.88883,0.6811 1.50172,-0.86145 0.84853,-0.79737 0.23461,-0.36277 1.50688,0.86817 -0.19637,0.38499 -0.26561,1.13326 0.007,1.73116 1.03456,0.42788 1.22783,-1.22059 0.6134,-0.99012 0.1323,-0.41135 1.68051,0.44959 -0.0899,0.42271 0.0367,1.16324 0.45527,1.67018 1.11001,0.14573 0.87074,-1.49707 0.33538,-1.11466 0.0217,-0.43202 1.73943,-5.1e-4 0.0222,0.43201 0.33693,1.11415 0.8723,1.49551 1.11001,-0.14676 0.4532,-1.6707 0.0357,-1.16375 -0.091,-0.42271 1.68,-0.45114 0.13281,0.41134 0.61444,0.98909 1.22989,1.21853 1.03353,-0.42891 0.005,-1.73116 -0.26613,-1.13327 -0.19741,-0.38447 1.50585,-0.87023 0.23462,0.36277 0.84956,0.79633 1.50326,0.85886 0.8878,-0.68161 -0.44338,-1.6738 -0.55087,-1.02526 -0.28989,-0.32039 1.22886,-1.230425 0.3209,0.289395 1.02681,0.54932 1.67433,0.4408 0.68108,-0.88832 -0.86143,-1.501715 -0.79737,-0.84801 -0.3638,-0.23462 0.8692,-1.50636 0.38447,0.19637 1.13378,0.2651 1.73168,-0.008 0.42788,-1.03405 -1.2206,-1.22783 -0.99064,-0.61288 -0.41082,-0.1323 0.44906,-1.68 0.42272,0.0899 1.16375,-0.0372 1.6707,-0.45475 0.14572,-1.11052 -1.49759,-0.86971 -1.11516,-0.3359 -0.43151,-0.0217 -9.9e-4,-1.73891 0.43201,-0.0222 1.11414,-0.33693 1.49656,-0.87179 -0.14727,-1.11001 -1.6707,-0.45268 -1.16427,-0.0362 -0.42273,0.091 -0.45112,-1.67897 0.41082,-0.13332 0.9896,-0.61392 1.21906,-1.22938 -0.42892,-1.03353 -1.73169,-0.006 -1.13326,0.26717 -0.38498,0.19688 -0.87075,-1.50533 0.36277,-0.23513 0.79685,-0.84904 0.85938,-1.50327 -0.68213,-0.88728 -1.6738,0.44286 -1.02577,0.55087 -0.32092,0.29043 -1.23041,-1.22939 0.28989,-0.32039 0.54933,-1.0263 0.44079,-1.67379 -0.88883,-0.68162 -1.50172,0.86145 -0.84852,0.79737 -0.2341,0.36328 -1.50688,-0.86868 0.19637,-0.38499 0.2651,-1.13326 -0.007,-1.73116 -1.03456,-0.42788 -1.22784,1.22059 -0.61288,0.99012 -0.13281,0.41135 -1.68051,-0.44907 0.0904,-0.42271 -0.0372,-1.16376 -0.45527,-1.67018 z m -2.08618,15.7608 c 0.61725,0 1.19182,0.11727 1.72393,0.3514 0.5534,0.23413 1.03219,0.55315 1.4366,0.95756 0.4044,0.4044 0.72395,0.88372 0.95808,1.43712 0.23413,0.53212 0.35088,1.10668 0.35088,1.72393 0,0.61725 -0.11675,1.20256 -0.35088,1.75596 -0.23413,0.53212 -0.55368,1.00015 -0.95808,1.40457 -0.40441,0.4044 -0.8832,0.72394 -1.4366,0.95808 -0.53211,0.23413 -1.10668,0.3514 -1.72393,0.3514 -0.61726,0 -1.20257,-0.11727 -1.75597,-0.3514 -0.53211,-0.23414 -1.00015,-0.55368 -1.40456,-0.95808 -0.40441,-0.40442 -0.72394,-0.87245 -0.95808,-1.40457 -0.23413,-0.5534 -0.3514,-1.13871 -0.3514,-1.75596 0,-0.61726 0.11727,-1.19181 0.3514,-1.72393 0.23414,-0.5534 0.55367,-1.03272 0.95808,-1.43712 0.40441,-0.40441 0.87245,-0.72343 1.40456,-0.95756 0.5534,-0.23413 1.13871,-0.3514 1.75597,-0.3514 z" /><rect
       style="fill:#003380;fill-opacity:1;stroke:none;stroke-width:2.6;stroke-linecap:round;stroke-linejoin:round;stroke-dasharray:none;stroke-opacity:1"
       id="rect401"
       width="133.94617"
       height="58.472221"
       x="-16.76322"
       y="240.96571"
       rx="3.9327326"
       ry="3.9327331"
       inkscape:export-filename="log.png"
       inkscape:export-xdpi="96"
       inkscape:export-ydpi="96" /><g
       id="g558"><path
         style="font-weight:normal;font-size:54.0013px;font-family:Phosphate;-inkscape-font-specification:'Phosphate, Normal';fill:#ffffff;fill-opacity:1;stroke:none;stroke-width:0.264583;stroke-linecap:round"
         d="M -10.103933,252.1654 H 2.1003606 l 4.1581,12.5823 4.1581004,-12.5823 h 7.88419 l 4.1581,12.5823 4.158101,-12.5823 H 38.821246 L 26.940959,288.18426 H 17.976743 L 14.358656,277.276 10.740569,288.18426 H 1.7763526 Z"
         id="path409" /><path
         style="font-weight:normal;font-size:54.0013px;font-family:Phosphate;-inkscape-font-specification:'Phosphate, Normal';fill:#ffffff;fill-opacity:1;stroke:none;stroke-width:0.264583;stroke-linecap:round"
         d="m 62.581775,264.42369 q -0.972024,-0.86402 -2.430059,-1.29603 -1.458035,-0.48601 -2.862069,-0.48601 -1.566037,0 -2.862069,0.59401 -1.296031,0.54002 -2.268054,1.56604 -0.918022,0.97202 -1.458035,2.37606 -0.540013,1.40403 -0.540013,3.02407 0,1.62004 0.594014,3.02407 0.594014,1.40404 1.620039,2.43006 1.026025,0.97202 2.376057,1.56604 1.404034,0.54001 2.970072,0.54001 1.836044,0 3.34808,-0.75602 1.512037,-0.81002 2.592063,-2.16005 h -3.240078 v -7.56018 h 13.878334 v 11.98829 q -1.24203,2.21405 -2.970071,4.05009 -1.728042,1.78205 -3.888094,3.07808 -2.106051,1.29603 -4.590111,1.99805 -2.48406,0.70201 -5.130123,0.70201 -3.888094,0 -7.344177,-1.45803 -3.456083,-1.45804 -6.048146,-3.9961 -2.538061,-2.53806 -4.050097,-5.99414 -1.458036,-3.45609 -1.458036,-7.45218 0,-3.88809 1.404034,-7.34417 1.404034,-3.45609 3.834093,-5.99415 2.484059,-2.59206 5.83214,-4.0501 3.402082,-1.51203 7.290176,-1.51203 3.024073,0 5.238126,0.59401 2.214053,0.59401 3.72609,1.35003 1.782043,0.86402 2.970071,1.89005 z"
         id="path411" /><path
         id="path419"
         style="font-weight:normal;font-size:54.0013px;font-family:Phosphate;-inkscape-font-specification:'Phosphate, Normal';fill:#ffffff;stroke:none;stroke-width:0.264583;stroke-linecap:round"
         d="m 80.120894,252.1654 h 12.42031 q 3.45607,0 6.37214,0.91802 2.970086,0.91802 5.130136,2.70006 2.16008,1.78205 3.3481,4.42811 1.24203,2.59206 1.24203,5.99414 0,2.70007 -0.75601,4.59012 -0.75602,1.89004 -1.67404,3.13207 -1.08004,1.40403 -2.43008,2.37606 l 6.75018,11.88028 H 97.023294 l -5.40013,-9.12622 v 9.12622 h -11.50227 z m 11.50227,17.71242 h 0.59402 q 2.05205,0 3.45608,-0.91802 1.45804,-0.91802 1.45804,-3.07807 0,-2.16005 -1.45804,-3.07808 -1.40403,-0.91802 -3.45608,-0.91802 h -0.59402 z" /></g><path
       style="fill:#000000;stroke-width:1"
       id="path816"
       d="" /><g
       id="g15325"
       inkscape:export-filename="logo.png"
       inkscape:export-xdpi="96"
       inkscape:export-ydpi="96"><rect
         style="fill:#003380;fill-opacity:1;stroke:none;stroke-width:2.6;stroke-linecap:round;stroke-linejoin:round;stroke-dasharray:none;stroke-opacity:1"
         id="rect619"
         width="291.2088"
         height="73.06514"
         x="-24.563885"
         y="144.25345"
         rx="3.9327328"
         ry="3.9327328"
         inkscape:export-filename="../wgaonar/assets/images/log.png"
         inkscape:export-xdpi="96"
         inkscape:export-ydpi="96" /><path
         style="fill:none;stroke:#ffffff;stroke-width:2.8;stroke-linecap:round;stroke-linejoin:bevel;stroke-dasharray:none;marker-start:url(#marker1671);marker-end:url(#marker1735)"
         d="m -18.231351,177.95374 v 24.1851 h 84.1899 l 8.341508,8.41235"
         id="path639"
         sodipodi:nodetypes="cccc" /><path
         style="fill:none;stroke:#ffffff;stroke-width:2.80001;stroke-linecap:round;stroke-linejoin:bevel;stroke-dasharray:none;marker-start:url(#Dot);marker-end:url(#Dot)"
         d="m 170.87765,153.26934 h 87.09909 v 55.03334 h -42.67463"
         id="path641"
         sodipodi:nodetypes="cccc" /><path
         id="path621"
         style="fill:url(#radialGradient645);fill-opacity:1;stroke:none;stroke-width:0.264584"
         d="m 131.45589,157.72312 -0.87023,1.49655 -0.3359,1.11466 -0.0217,0.43202 -1.73892,5.1e-4 -0.0222,-0.43149 -0.33744,-1.11466 -0.8723,-1.495 -1.1095,0.14676 -0.4532,1.6707 -0.0357,1.16375 0.0909,0.42271 -1.68001,0.45062 -0.13332,-0.41083 -0.61392,-0.98908 -1.2299,-1.21905 -1.03404,0.42891 -0.005,1.73116 0.26613,1.13327 0.19741,0.38447 -1.50586,0.87075 -0.23512,-0.36277 -0.84905,-0.79633 -1.50326,-0.85938 -0.88781,0.68213 0.44339,1.67328 0.55087,1.02578 0.2899,0.32039 -1.22886,1.23093 -0.32091,-0.2899 -1.02681,-0.54984 -1.67432,-0.4408 -0.68109,0.88832 0.86144,1.50223 0.79737,0.84801 0.36328,0.2341 -0.86868,1.50688 -0.38499,-0.19688 -1.13378,-0.2651 -1.73167,0.008 -0.42737,1.03404 1.2206,1.22783 0.9896,0.61289 0.41186,0.1328 -0.44906,1.68001 -0.42272,-0.091 -1.16427,0.0377 -1.67018,0.45476 -0.14573,1.11001 1.49759,0.87023 1.11414,0.33538 0.43201,0.0222 0.001,1.73839 -0.4315,0.0222 -1.11466,0.33745 -1.49603,0.87178 0.14727,1.10949 1.67122,0.4532 1.16375,0.0357 0.42272,-0.091 0.45113,1.67948 -0.41134,0.13281 -0.98909,0.61443 -1.21956,1.22938 0.42943,1.03353 1.73167,0.005 1.13327,-0.26665 0.38499,-0.1974 0.87023,1.50533 -0.36277,0.23513 -0.79633,0.84904 -0.85938,1.50327 0.68161,0.88728 1.67432,-0.44286 1.02577,-0.55087 0.32091,-0.28991 1.23042,1.22887 -0.2899,0.32039 -0.54932,1.02681 -0.44132,1.6738 0.88883,0.6811 1.50172,-0.86145 0.84853,-0.79737 0.23461,-0.36277 1.50688,0.86817 -0.19637,0.38499 -0.26561,1.13326 0.007,1.73116 1.03456,0.42788 1.22783,-1.22059 0.6134,-0.99012 0.1323,-0.41135 1.68051,0.44959 -0.0899,0.42271 0.0367,1.16324 0.45527,1.67018 1.11001,0.14573 0.87074,-1.49707 0.33538,-1.11466 0.0217,-0.43202 1.73943,-5.1e-4 0.0222,0.43201 0.33693,1.11415 0.8723,1.49551 1.11001,-0.14676 0.4532,-1.6707 0.0357,-1.16375 -0.091,-0.42271 1.68,-0.45114 0.13281,0.41134 0.61444,0.98909 1.22989,1.21853 1.03353,-0.42891 0.005,-1.73116 -0.26613,-1.13327 -0.19741,-0.38447 1.50585,-0.87023 0.23462,0.36277 0.84956,0.79633 1.50326,0.85886 0.8878,-0.68161 -0.44338,-1.6738 -0.55087,-1.02526 -0.28989,-0.32039 1.22886,-1.23042 0.3209,0.28939 1.02681,0.54932 1.67433,0.4408 0.68108,-0.88832 -0.86143,-1.50171 -0.79737,-0.84801 -0.3638,-0.23462 0.8692,-1.50636 0.38447,0.19637 1.13378,0.2651 1.73168,-0.008 0.42788,-1.03405 -1.2206,-1.22783 -0.99064,-0.61288 -0.41082,-0.1323 0.44906,-1.68 0.42272,0.0899 1.16375,-0.0372 1.6707,-0.45475 0.14572,-1.11052 -1.49759,-0.86971 -1.11516,-0.3359 -0.43151,-0.0217 -9.9e-4,-1.73891 0.43201,-0.0222 1.11414,-0.33693 1.49656,-0.87179 -0.14727,-1.11001 -1.6707,-0.45268 -1.16427,-0.0362 -0.42273,0.091 -0.45112,-1.67897 0.41082,-0.13332 0.9896,-0.61392 1.21906,-1.22938 -0.42892,-1.03353 -1.73169,-0.006 -1.13326,0.26717 -0.38498,0.19688 -0.87075,-1.50533 0.36277,-0.23513 0.79685,-0.84904 0.85938,-1.50327 -0.68213,-0.88728 -1.6738,0.44286 -1.02577,0.55087 -0.32092,0.29043 -1.23041,-1.22939 0.28989,-0.32039 0.54933,-1.0263 0.44079,-1.67379 -0.88883,-0.68162 -1.50172,0.86145 -0.84852,0.79737 -0.2341,0.36328 -1.50688,-0.86868 0.19637,-0.38499 0.2651,-1.13326 -0.007,-1.73116 -1.03456,-0.42788 -1.22784,1.22059 -0.61288,0.99012 -0.13281,0.41135 -1.68051,-0.44907 0.0904,-0.42271 -0.0372,-1.16376 -0.45527,-1.67018 z m -2.08618,15.7608 c 0.61725,0 1.19182,0.11727 1.72393,0.3514 0.5534,0.23413 1.03219,0.55315 1.4366,0.95756 0.4044,0.4044 0.72395,0.88372 0.95808,1.43712 0.23413,0.53212 0.35088,1.10668 0.35088,1.72393 0,0.61725 -0.11675,1.20256 -0.35088,1.75596 -0.23413,0.53212 -0.55368,1.00015 -0.95808,1.40457 -0.40441,0.4044 -0.8832,0.72394 -1.4366,0.95808 -0.53211,0.23413 -1.10668,0.3514 -1.72393,0.3514 -0.61726,0 -1.20257,-0.11727 -1.75597,-0.3514 -0.53211,-0.23414 -1.00015,-0.55368 -1.40456,-0.95808 -0.40441,-0.40442 -0.72394,-0.87245 -0.95808,-1.40457 -0.23413,-0.5534 -0.3514,-1.13871 -0.3514,-1.75596 0,-0.61726 0.11727,-1.19181 0.3514,-1.72393 0.23414,-0.5534 0.55367,-1.03272 0.95808,-1.43712 0.40441,-0.40441 0.87245,-0.72343 1.40456,-0.95756 0.5534,-0.23413 1.13871,-0.3514 1.75597,-0.3514 z" /><path
         style="font-weight:normal;font-size:54.0013px;font-family:Phosphate;-inkscape-font-specification:'Phosphate, Normal';fill:#ffffff;fill-opacity:1;stroke:none;stroke-width:0.264583;stroke-linecap:round"
         d="M -10.103933,159.94431 H 2.1003606 l 4.1581,12.5823 4.1581004,-12.5823 h 7.88419 l 4.1581,12.5823 4.158101,-12.5823 h 12.204294 l -11.880287,36.01886 h -8.964216 l -3.618087,-10.90826 -3.618087,10.90826 H 1.7763526 Z"
         id="path623" /><path
         style="font-weight:normal;font-size:54.0013px;font-family:Phosphate;-inkscape-font-specification:'Phosphate, Normal';fill:#ffffff;fill-opacity:1;stroke:none;stroke-width:0.264583;stroke-linecap:round"
         d="m 62.581775,172.2026 q -0.972024,-0.86402 -2.430059,-1.29603 -1.458035,-0.48601 -2.862069,-0.48601 -1.566037,0 -2.862069,0.59401 -1.296031,0.54002 -2.268054,1.56604 -0.918022,0.97202 -1.458035,2.37606 -0.540013,1.40403 -0.540013,3.02407 0,1.62004 0.594014,3.02407 0.594014,1.40404 1.620039,2.43006 1.026025,0.97202 2.376057,1.56604 1.404034,0.54001 2.970072,0.54001 1.836044,0 3.34808,-0.75602 1.512037,-0.81002 2.592063,-2.16005 h -3.240078 v -7.56018 h 13.878334 v 11.98829 q -1.24203,2.21405 -2.970071,4.05009 -1.728042,1.78205 -3.888094,3.07808 -2.106051,1.29603 -4.590111,1.99805 -2.48406,0.70201 -5.130123,0.70201 -3.888094,0 -7.344177,-1.45803 -3.456083,-1.45804 -6.048146,-3.9961 -2.538061,-2.53806 -4.050097,-5.99414 -1.458036,-3.45609 -1.458036,-7.45218 0,-3.88809 1.404034,-7.34417 1.404034,-3.45609 3.834093,-5.99415 2.484059,-2.59206 5.83214,-4.0501 3.402082,-1.51203 7.290176,-1.51203 3.024073,0 5.238126,0.59401 2.214053,0.59401 3.72609,1.35003 1.782043,0.86402 2.970071,1.89005 z"
         id="path625" /><path
         id="path627"
         style="font-weight:normal;font-size:54.0013px;font-family:Phosphate;-inkscape-font-specification:'Phosphate, Normal';fill:#ffffff;fill-opacity:1;stroke:none;stroke-width:0.264583;stroke-linecap:round"
         d="m 88.318585,159.94431 h 8.640197 l 13.662328,36.01886 H 99.280842 l -1.18803,-3.24008 H 87.184555 l -1.18803,3.24008 H 74.656251 Z m 6.750157,24.84059 -2.43006,-6.31815 -2.43006,6.31815 z" /><path
         style="font-weight:normal;font-size:54.0013px;font-family:Phosphate;-inkscape-font-specification:'Phosphate, Normal';fill:#ffffff;stroke:none;stroke-width:0.264583;stroke-linecap:round"
         d="m 151.42422,159.94431 h 9.45023 l 9.93624,13.87833 v -13.87833 h 11.28627 v 36.01886 h -9.50423 l -9.88224,-13.82433 v 13.82433 h -11.28627 z"
         id="path629" /><path
         id="path631"
         style="font-weight:normal;font-size:54.0013px;font-family:Phosphate;-inkscape-font-specification:'Phosphate, Normal';fill:#ffffff;stroke:none;stroke-width:0.264583;stroke-linecap:round"
         d="m 198.66971,159.94431 h 8.6402 l 13.66233,36.01886 h -11.34027 l -1.18803,-3.24008 h -10.90826 l -1.18803,3.24008 h -11.34027 z m 6.75016,24.84059 -2.43006,-6.31815 -2.43006,6.31815 z" /><path
         id="path633"
         style="font-weight:normal;font-size:54.0013px;font-family:Phosphate;-inkscape-font-specification:'Phosphate, Normal';fill:#ffffff;stroke:none;stroke-width:0.264583;stroke-linecap:round"
         d="m 221.78223,159.94431 h 12.42031 q 3.45607,0 6.37214,0.91802 2.97008,0.91802 5.13012,2.70006 2.16006,1.78205 3.34808,4.42811 1.24203,2.59206 1.24203,5.99414 0,2.70007 -0.75601,4.59012 -0.75602,1.89004 -1.67404,3.13207 -1.08003,1.40403 -2.43006,2.37606 l 6.75016,11.88028 h -13.50033 l -5.40013,-9.12622 v 9.12622 h -11.50227 z m 11.50227,17.71242 h 0.59402 q 2.05205,0 3.45608,-0.91802 1.45804,-0.91802 1.45804,-3.07807 0,-2.16005 -1.45804,-3.07808 -1.40403,-0.91802 -3.45608,-0.91802 h -0.59402 z" /><path
         style="color:#000000;fill:#ffffff;stroke-width:1.465;stroke-linejoin:round"
         d="m 226.09367,174.7172 v 0 -11.30982"
         id="path635" /><path
         id="path6287"
         style="fill:#ffffff;stroke:none;stroke-width:0.1;stroke-linejoin:round;stroke-dasharray:none;paint-order:markers fill stroke"
         d="M 128.0415 159.05134 L 127.99396 159.05237 C 127.73072 159.05037 127.24523 159.07467 127.06585 159.38465 C 126.88966 159.69458 126.02919 161.32902 125.87316 162.83199 C 125.7232 164.28935 125.69831 165.4933 125.09491 165.74861 C 124.45418 165.90226 123.8266 166.10632 123.21803 166.3589 C 122.58378 166.48558 121.85802 165.5307 120.89052 164.45359 C 119.87985 163.32617 118.22158 162.50956 117.89639 162.36535 C 117.5751 162.21572 117.16618 162.48526 116.95174 162.63975 L 116.9135 162.66869 C 116.69936 162.8218 116.32093 163.12642 116.35798 163.48259 C 116.39758 163.8369 116.66223 165.66518 117.41941 166.97282 C 118.14083 168.21602 118.81622 169.19125 118.52219 169.75766 C 118.07568 170.27582 117.67246 170.82976 117.31658 171.41389 C 116.85874 171.84715 115.7286 171.50939 114.34157 171.21287 C 112.86124 170.89482 111.03899 171.20885 110.69114 171.28315 C 110.34328 171.35095 110.17128 171.80933 110.0886 172.06036 L 110.07464 172.10636 C 109.99144 172.3561 109.86478 172.82494 110.1041 173.09131 C 110.34443 173.35465 111.63281 174.67836 113.014 175.29118 C 114.30689 175.86342 115.4111 176.2521 115.53736 176.86524 C 115.50726 177.21101 115.49153 177.55789 115.49033 177.90497 C 115.49133 178.25638 115.50791 178.60758 115.53891 178.95762 C 115.41028 179.56978 114.30351 179.95934 113.01607 180.53065 C 111.63151 181.14345 110.34226 182.46839 110.10462 182.7331 C 109.86299 182.99242 109.99297 183.46481 110.07361 183.7165 L 110.08963 183.76198 C 110.16903 184.01295 110.34199 184.46643 110.69218 184.54126 C 111.0414 184.61306 112.86187 184.92665 114.3395 184.6105 C 115.76001 184.30531 116.90535 183.96033 117.34293 184.43739 C 117.68811 184.99953 118.07725 185.53346 118.50669 186.03419 C 118.83958 186.59625 118.15147 187.58618 117.42096 188.84797 C 116.66104 190.15752 116.39671 191.98747 116.36005 192.3413 C 116.31695 192.69312 116.6998 192.999 116.91299 193.1552 L 116.95226 193.18259 C 117.16405 193.33894 117.57117 193.60436 117.89845 193.45906 C 118.22317 193.31188 119.88035 192.49502 120.89 191.37081 C 121.90064 190.2434 122.64402 189.25637 123.29761 189.48721 L 123.29296 189.48411 C 123.8672 189.71679 124.45793 189.90644 125.06029 190.05151 L 125.0329 190.05151 C 125.69735 190.24892 125.71871 191.48418 125.87368 192.99035 C 126.02971 194.49332 126.89018 196.12775 127.06637 196.43769 C 127.24575 196.74762 127.73124 196.77197 127.99448 196.76997 L 128.04099 196.771 C 128.30528 196.77 128.79456 196.74761 128.96651 196.43769 C 129.14479 196.12988 130.00683 194.49443 130.16179 192.98829 C 130.31782 191.48639 130.33915 190.24636 131.0036 190.04893 L 130.94779 190.04893 C 131.58148 189.89458 132.20211 189.69088 132.804 189.43967 L 132.73838 189.48772 C 133.39197 189.25689 134.13532 190.24391 135.14598 191.37133 C 136.15564 192.49554 137.81285 193.31188 138.13753 193.45906 C 138.46483 193.60436 138.87142 193.33893 139.08321 193.18259 L 139.12248 193.15572 C 139.33567 192.99952 139.71852 192.69363 139.67542 192.34181 C 139.63872 191.98798 139.37444 190.15808 138.6145 188.84849 C 137.85793 187.5417 137.14656 186.52606 137.56806 185.97579 L 137.48021 186.03987 C 137.92457 185.52148 138.32572 184.96755 138.67962 184.38364 L 138.64137 184.50198 C 139.03445 183.93106 140.21568 184.29246 141.69597 184.6105 C 143.1736 184.92656 144.99459 184.61346 145.34381 184.54126 C 145.694 184.46646 145.86696 184.01295 145.94636 183.76198 L 145.96186 183.7165 C 146.04246 183.46482 146.17248 182.99241 145.93085 182.7331 C 145.69321 182.46839 144.40395 181.14345 143.0194 180.53065 C 141.63921 179.91818 140.46656 179.51465 140.48416 178.82171 L 140.44695 178.9354 C 140.47555 178.59267 140.49006 178.2489 140.49036 177.90497 C 140.48936 177.55963 140.47397 177.21448 140.44437 176.87041 L 140.48622 176.99908 C 140.46862 176.30615 141.63696 175.90399 143.02147 175.29118 C 144.40266 174.67836 145.69156 173.35465 145.93189 173.09131 C 146.0366 172.97477 146.071 172.81959 146.06986 172.66084 C 146.06886 172.45676 146.00816 172.24683 145.96134 172.10636 L 145.94739 172.06036 C 145.86469 171.80933 145.69223 171.35095 145.34432 171.28315 C 144.99649 171.20845 143.17475 170.8943 141.69442 171.21235 C 140.2178 171.52807 139.03189 171.89128 138.63879 171.32036 L 138.67445 171.4294 C 138.32041 170.84656 137.91927 170.29367 137.47504 169.77627 L 137.56909 169.84448 C 137.14758 169.29421 137.85665 168.2819 138.61657 166.9723 C 139.37377 165.66466 139.63789 163.83638 139.67749 163.48208 C 139.71459 163.1259 139.33662 162.82128 139.12248 162.66817 L 139.08424 162.63923 C 138.86981 162.48474 138.46089 162.21516 138.1396 162.36483 C 137.81441 162.50904 136.15562 163.32565 135.14495 164.45308 C 134.13592 165.57644 133.3899 166.567 132.73631 166.33617 L 132.77352 166.36304 C 132.19084 166.12149 131.59071 165.92437 130.97828 165.77341 L 131.00411 165.77341 C 130.33967 165.57598 130.31834 164.33649 130.16231 162.83457 C 130.00735 161.32842 129.14535 159.69246 128.96703 159.38465 C 128.79508 159.07471 128.30579 159.05239 128.0415 159.05134 z M 128.01825 166.96093 C 134.05983 166.96093 138.96745 171.87011 138.96745 177.91169 C 138.96745 183.95327 134.05983 188.86089 128.01825 188.86089 C 121.97668 188.86089 117.06698 183.95327 117.06698 177.91169 C 117.06698 171.87011 121.97668 166.96093 128.01825 166.96093 z M 128.01825 167.96087 C 122.51712 167.96087 118.06744 172.41055 118.06744 177.91169 C 118.06744 183.41283 122.51712 187.86095 128.01825 187.86095 C 133.5194 187.86095 137.96751 183.41283 137.96751 177.91169 C 137.96751 172.41055 133.5194 167.96087 128.01825 167.96087 z M 123.20717 171.22476 A 1.95 1.95 0 0 1 124.65928 171.79423 A 1.95 1.95 0 0 1 124.65928 174.5522 A 1.95 1.95 0 0 1 121.90131 174.5522 A 1.95 1.95 0 0 1 121.90131 171.79475 A 1.95 1.95 0 0 1 123.20717 171.22476 z M 132.68257 171.22476 A 1.95 1.95 0 0 1 134.13467 171.79475 A 1.95 1.95 0 0 1 134.13416 174.5522 A 1.95 1.95 0 0 1 131.3767 174.5522 A 1.95 1.95 0 0 1 131.37619 171.79475 A 1.95 1.95 0 0 1 132.68257 171.22476 z M 127.90766 174.96303 A 2.95 2.95 0 0 1 130.10391 175.82499 A 2.95 2.95 0 0 1 130.10391 179.99683 A 2.95 2.95 0 0 1 125.93207 179.99735 A 2.95 2.95 0 0 1 125.93207 175.82499 A 2.95 2.95 0 0 1 127.90766 174.96303 z M 132.68257 180.69963 A 1.95 1.95 0 0 1 134.13467 181.26962 A 1.95 1.95 0 0 1 134.13416 184.02759 A 1.95 1.95 0 0 1 131.3767 184.02759 A 1.95 1.95 0 0 1 131.37619 181.26962 A 1.95 1.95 0 0 1 132.68257 180.69963 z M 123.20717 180.70015 A 1.95 1.95 0 0 1 124.65928 181.27014 A 1.95 1.95 0 0 1 124.65928 184.02759 A 1.95 1.95 0 0 1 121.90131 184.02759 A 1.95 1.95 0 0 1 121.90131 181.26962 A 1.95 1.95 0 0 1 123.20717 180.70015 z " /></g></g></svg>
